STARTFONT 2.1
FONT misc.arrows
SIZE 14 72 72
FONTBOUNDINGBOX 16 14 0 -3
STARTPROPERTIES 4
FONT_DESCENT 3
FONT_ASCENT 11
DEFAULT_CHAR 0
COPYRIGHT "Copyright (c) 1992 AT&T - All rights reserved."
ENDPROPERTIES
CHARS 91
STARTCHAR ch-0
ENCODING 0
SWIDTH 1142 0
DWIDTH 16 0
BBX 16 14 0 -3
BITMAP
0000
0000
0000
0000
0000
1000
2000
7ffc
2000
1000
0000
0000
0000
0000
ENDCHAR
STARTCHAR ch-1
ENCODING 1
SWIDTH 571 0
DWIDTH 8 0
BBX 8 14 0 -3
BITMAP
0000
1000
3800
5400
1000
1000
1000
1000
1000
1000
1000
1000
1000
1000
ENDCHAR
STARTCHAR ch-2
ENCODING 2
SWIDTH 1142 0
DWIDTH 16 0
BBX 16 14 0 -3
BITMAP
0000
0000
0000
0000
0000
0010
0008
7ffc
0008
0010
0000
0000
0000
0000
ENDCHAR
STARTCHAR ch-3
ENCODING 3
SWIDTH 571 0
DWIDTH 8 0
BBX 8 14 0 -3
BITMAP
0000
1000
1000
1000
1000
1000
1000
1000
1000
1000
1000
5400
3800
1000
ENDCHAR
STARTCHAR ch-4
ENCODING 4
SWIDTH 1142 0
DWIDTH 16 0
BBX 16 14 0 -3
BITMAP
0000
0000
0000
0000
0000
1010
2008
7ffc
2008
1010
0000
0000
0000
0000
ENDCHAR
STARTCHAR ch-5
ENCODING 5
SWIDTH 571 0
DWIDTH 8 0
BBX 8 14 0 -3
BITMAP
0000
1000
3800
5400
1000
1000
1000
1000
1000
1000
1000
5400
3800
1000
ENDCHAR
STARTCHAR ch-6
ENCODING 6
SWIDTH 1142 0
DWIDTH 16 0
BBX 16 14 0 -3
BITMAP
0000
7000
6000
5000
0800
0400
0200
0100
0080
0040
0020
0010
0008
0004
ENDCHAR
STARTCHAR ch-7
ENCODING 7
SWIDTH 1142 0
DWIDTH 16 0
BBX 16 14 0 -3
BITMAP
0000
001c
000c
0014
0020
0040
0080
0100
0200
0400
0800
1000
2000
4000
ENDCHAR
STARTCHAR ch-8
ENCODING 8
SWIDTH 1142 0
DWIDTH 16 0
BBX 16 14 0 -3
BITMAP
0000
4000
2000
1000
0800
0400
0200
0100
0080
0040
0020
0014
000c
001c
ENDCHAR
STARTCHAR ch-9
ENCODING 9
SWIDTH 1142 0
DWIDTH 16 0
BBX 16 14 0 -3
BITMAP
0000
0004
0008
0010
0020
0040
0080
0100
0200
0400
0800
5000
6000
7000
ENDCHAR
STARTCHAR ch-10
ENCODING 10
SWIDTH 1142 0
DWIDTH 16 0
BBX 16 14 0 -3
BITMAP
0000
0000
0000
0000
0040
1040
2080
7ffc
2080
1100
0100
0000
0000
0000
ENDCHAR
STARTCHAR ch-11
ENCODING 11
SWIDTH 1142 0
DWIDTH 16 0
BBX 16 14 0 -3
BITMAP
0000
0000
0000
0000
0100
0110
0208
7ffc
0208
0410
0400
0000
0000
0000
ENDCHAR
STARTCHAR ch-12
ENCODING 12
SWIDTH 1142 0
DWIDTH 16 0
BBX 16 14 0 -3
BITMAP
0000
0000
0000
0000
0000
1018
2024
7844
2440
1380
0000
0000
0000
0000
ENDCHAR
STARTCHAR ch-13
ENCODING 13
SWIDTH 1142 0
DWIDTH 16 0
BBX 16 14 0 -3
BITMAP
0000
0000
0000
0000
0000
3010
4808
443c
0448
0390
0000
0000
0000
0000
ENDCHAR
STARTCHAR ch-14
ENCODING 14
SWIDTH 1142 0
DWIDTH 16 0
BBX 16 14 0 -3
BITMAP
0000
0000
0000
0000
0000
1200
2400
7ffc
2400
1200
0000
0000
0000
0000
ENDCHAR
STARTCHAR ch-15
ENCODING 15
SWIDTH 571 0
DWIDTH 8 0
BBX 8 14 0 -3
BITMAP
0000
1000
3800
5400
1000
3800
5400
1000
1000
1000
1000
1000
1000
1000
ENDCHAR
STARTCHAR ch-16
ENCODING 16
SWIDTH 1142 0
DWIDTH 16 0
BBX 16 14 0 -3
BITMAP
0000
0000
0000
0000
0000
0090
0048
7ffc
0048
0090
0000
0000
0000
0000
ENDCHAR
STARTCHAR ch-17
ENCODING 17
SWIDTH 571 0
DWIDTH 8 0
BBX 8 14 0 -3
BITMAP
0000
1000
1000
1000
1000
1000
1000
1000
5400
3800
1000
5400
3800
1000
ENDCHAR
STARTCHAR ch-18
ENCODING 18
SWIDTH 1142 0
DWIDTH 16 0
BBX 16 14 0 -3
BITMAP
0000
0000
0000
0000
0000
1004
2008
7ff0
2008
1004
0000
0000
0000
0000
ENDCHAR
STARTCHAR ch-19
ENCODING 19
SWIDTH 1142 0
DWIDTH 16 0
BBX 16 14 0 -3
BITMAP
0000
0000
0000
0000
0000
4010
2008
1ffc
2008
4010
0000
0000
0000
0000
ENDCHAR
STARTCHAR ch-20
ENCODING 20
SWIDTH 1142 0
DWIDTH 16 0
BBX 16 14 0 -3
BITMAP
0000
0000
0000
0000
0000
1004
2004
7ffc
2004
1004
0000
0000
0000
0000
ENDCHAR
STARTCHAR ch-21
ENCODING 21
SWIDTH 571 0
DWIDTH 8 0
BBX 8 14 0 -3
BITMAP
0000
1000
3800
5400
1000
1000
1000
1000
1000
1000
1000
1000
1000
7c00
ENDCHAR
STARTCHAR ch-22
ENCODING 22
SWIDTH 1142 0
DWIDTH 16 0
BBX 16 14 0 -3
BITMAP
0000
0000
0000
0000
0000
4010
4008
7ffc
4008
4010
0000
0000
0000
0000
ENDCHAR
STARTCHAR ch-23
ENCODING 23
SWIDTH 1142 0
DWIDTH 16 0
BBX 16 14 0 -3
BITMAP
0000
7c00
1000
1000
1000
1000
1000
1000
1000
1000
1000
5400
3800
1000
ENDCHAR
STARTCHAR ch-24
ENCODING 24
SWIDTH 571 0
DWIDTH 8 0
BBX 8 14 0 -3
BITMAP
0000
1000
3800
5400
1000
1000
1000
1000
1000
1000
5400
3800
1000
7c00
ENDCHAR
STARTCHAR ch-25
ENCODING 25
SWIDTH 1142 0
DWIDTH 16 0
BBX 16 14 0 -3
BITMAP
0000
0000
0000
0000
0018
1004
2004
7ffc
2000
1000
0000
0000
0000
0000
ENDCHAR
STARTCHAR ch-26
ENCODING 26
SWIDTH 1142 0
DWIDTH 16 0
BBX 16 14 0 -3
BITMAP
0000
0000
0000
0000
3000
4010
4008
7ffc
0008
0010
0000
0000
0000
0000
ENDCHAR
STARTCHAR ch-27
ENCODING 27
SWIDTH 1142 0
DWIDTH 16 0
BBX 16 14 0 -3
BITMAP
0000
0000
0000
0000
0018
1024
2024
7ffc
2020
1020
0000
0000
0000
0000
ENDCHAR
STARTCHAR ch-28
ENCODING 28
SWIDTH 1142 0
DWIDTH 16 0
BBX 16 14 0 -3
BITMAP
0000
0000
0000
0000
3000
4810
4808
7ffc
0808
0810
0000
0000
0000
0000
ENDCHAR
STARTCHAR ch-29
ENCODING 29
SWIDTH 1142 0
DWIDTH 16 0
BBX 16 14 0 -3
BITMAP
0000
0000
0000
0000
0000
1008
2184
7a5e
2424
1008
0000
0000
0000
0000
ENDCHAR
STARTCHAR ch-30
ENCODING 30
SWIDTH 1142 0
DWIDTH 16 0
BBX 16 14 0 -3
BITMAP
0000
0000
0000
0000
0080
1090
2108
7ffc
2108
1210
0200
0000
0000
0000
ENDCHAR
STARTCHAR ch-31
ENCODING 31
SWIDTH 571 0
DWIDTH 8 0
BBX 8 14 0 -3
BITMAP
0000
1000
2000
2000
4400
5c00
6400
4800
0800
1000
1000
5400
3800
1000
ENDCHAR
STARTCHAR ch-32
ENCODING 32
SWIDTH 571 0
DWIDTH 8 0
BBX 8 14 0 -3
BITMAP
0000
1000
2000
7c00
2400
1400
0400
0400
0400
0400
0400
0400
0400
0400
ENDCHAR
STARTCHAR ch-33
ENCODING 33
SWIDTH 571 0
DWIDTH 8 0
BBX 8 14 0 -3
BITMAP
0000
1000
0800
7c00
4800
5000
4000
4000
4000
4000
4000
4000
4000
4000
ENDCHAR
STARTCHAR ch-34
ENCODING 34
SWIDTH 571 0
DWIDTH 8 0
BBX 8 14 0 -3
BITMAP
0000
0400
0400
0400
0400
0400
0400
0400
0400
1400
2400
7c00
2000
1000
ENDCHAR
STARTCHAR ch-35
ENCODING 35
SWIDTH 571 0
DWIDTH 8 0
BBX 8 14 0 -3
BITMAP
0000
4000
4000
4000
4000
4000
4000
4000
4000
5000
4800
7c00
0800
1000
ENDCHAR
STARTCHAR ch-36
ENCODING 36
SWIDTH 857 0
DWIDTH 12 0
BBX 12 14 0 -3
BITMAP
0000
0100
0080
7fc0
4080
4100
4000
4000
4000
4000
4000
0000
0000
0000
ENDCHAR
STARTCHAR ch-37
ENCODING 37
SWIDTH 857 0
DWIDTH 12 0
BBX 12 14 0 -3
BITMAP
0000
0000
0000
0040
0040
0040
0040
0040
1040
2040
7fc0
2000
1000
0000
ENDCHAR
STARTCHAR ch-38
ENCODING 38
SWIDTH 1142 0
DWIDTH 16 0
BBX 16 14 0 -3
BITMAP
0000
0000
0000
0000
0000
07e0
0810
1008
5408
3804
1004
0000
0000
0000
ENDCHAR
STARTCHAR ch-39
ENCODING 39
SWIDTH 1142 0
DWIDTH 16 0
BBX 16 14 0 -3
BITMAP
0000
0000
0000
0000
0000
0fc0
1020
2010
2054
4038
4010
0000
0000
0000
ENDCHAR
STARTCHAR ch-40
ENCODING 40
SWIDTH 1142 0
DWIDTH 16 0
BBX 16 14 0 -3
BITMAP
0000
7ff8
7000
6000
5000
0800
0400
0200
0100
0080
0040
0020
0010
0008
ENDCHAR
STARTCHAR ch-41
ENCODING 41
SWIDTH 1142 0
DWIDTH 16 0
BBX 16 14 0 -3
BITMAP
0000
0000
4800
5000
7ffc
5000
4800
0024
0014
7ffc
0014
0024
0000
0000
ENDCHAR
STARTCHAR ch-42
ENCODING 42
SWIDTH 1142 0
DWIDTH 16 0
BBX 16 14 0 -3
BITMAP
0000
0000
103c
2030
2028
4024
4004
4004
4004
4004
2008
2008
1830
07c0
ENDCHAR
STARTCHAR ch-43
ENCODING 43
SWIDTH 1142 0
DWIDTH 16 0
BBX 16 14 0 -3
BITMAP
0000
0000
7810
1808
2808
4804
4004
4004
4004
4004
2008
2008
1830
07c0
ENDCHAR
STARTCHAR ch-44
ENCODING 44
SWIDTH 1142 0
DWIDTH 16 0
BBX 16 14 0 -3
BITMAP
0000
0000
0000
0000
0000
1000
3000
7ffc
0000
0000
0000
0000
0000
0000
ENDCHAR
STARTCHAR ch-45
ENCODING 45
SWIDTH 1142 0
DWIDTH 16 0
BBX 16 14 0 -3
BITMAP
0000
0000
0000
0000
0000
0000
0000
7ffc
3000
1000
0000
0000
0000
0000
ENDCHAR
STARTCHAR ch-46
ENCODING 46
SWIDTH 428 0
DWIDTH 6 0
BBX 6 14 0 -3
BITMAP
0000
4000
6000
7000
4000
4000
4000
4000
4000
4000
4000
4000
4000
4000
ENDCHAR
STARTCHAR ch-47
ENCODING 47
SWIDTH 428 0
DWIDTH 6 0
BBX 6 14 0 -3
BITMAP
0000
1000
3000
7000
1000
1000
1000
1000
1000
1000
1000
1000
1000
1000
ENDCHAR
STARTCHAR ch-48
ENCODING 48
SWIDTH 1142 0
DWIDTH 16 0
BBX 16 14 0 -3
BITMAP
0000
0000
0000
0000
0000
0010
0018
7ffc
0000
0000
0000
0000
0000
0000
ENDCHAR
STARTCHAR ch-49
ENCODING 49
SWIDTH 1142 0
DWIDTH 16 0
BBX 16 14 0 -3
BITMAP
0000
0000
0000
0000
0000
0000
0000
7ffc
0018
0010
0000
0000
0000
0000
ENDCHAR
STARTCHAR ch-50
ENCODING 50
SWIDTH 428 0
DWIDTH 6 0
BBX 6 14 0 -3
BITMAP
0000
4000
4000
4000
4000
4000
4000
4000
4000
4000
4000
7000
6000
4000
ENDCHAR
STARTCHAR ch-51
ENCODING 51
SWIDTH 428 0
DWIDTH 6 0
BBX 6 14 0 -3
BITMAP
0000
1000
1000
1000
1000
1000
1000
1000
1000
1000
1000
7000
3000
1000
ENDCHAR
STARTCHAR ch-52
ENCODING 52
SWIDTH 1142 0
DWIDTH 16 0
BBX 16 14 0 -3
BITMAP
0000
0000
0000
0010
0008
7ffc
0008
1010
2000
7ffc
2000
1000
0000
0000
ENDCHAR
STARTCHAR ch-53
ENCODING 53
SWIDTH 857 0
DWIDTH 12 0
BBX 12 14 0 -3
BITMAP
0000
1100
3900
5500
1100
1100
1100
1100
1100
1100
1100
1540
1380
1100
ENDCHAR
STARTCHAR ch-54
ENCODING 54
SWIDTH 1142 0
DWIDTH 16 0
BBX 16 14 0 -3
BITMAP
0000
0000
0000
1000
2000
7ffc
2000
1010
0008
7ffc
0008
0010
0000
0000
ENDCHAR
STARTCHAR ch-55
ENCODING 55
SWIDTH 1142 0
DWIDTH 16 0
BBX 16 14 0 -3
BITMAP
0000
0000
0000
1000
2000
7ffc
2000
1000
2000
7ffc
2000
1000
0000
0000
ENDCHAR
STARTCHAR ch-56
ENCODING 56
SWIDTH 857 0
DWIDTH 12 0
BBX 12 14 0 -3
BITMAP
0000
1100
3b80
5540
1100
1100
1100
1100
1100
1100
1100
1100
1100
1100
ENDCHAR
STARTCHAR ch-57
ENCODING 57
SWIDTH 1142 0
DWIDTH 16 0
BBX 16 14 0 -3
BITMAP
0000
0000
0000
0010
0008
7ffc
0008
0010
0008
7ffc
0008
0010
0000
0000
ENDCHAR
STARTCHAR ch-58
ENCODING 58
SWIDTH 857 0
DWIDTH 12 0
BBX 12 14 0 -3
BITMAP
0000
1100
1100
1100
1100
1100
1100
1100
1100
1100
1100
5540
3b80
1100
ENDCHAR
STARTCHAR ch-59
ENCODING 59
SWIDTH 1142 0
DWIDTH 16 0
BBX 16 14 0 -3
BITMAP
0000
0000
0000
1000
3000
7ffc
0000
0000
0000
7ffc
0018
0010
0000
0000
ENDCHAR
STARTCHAR ch-60
ENCODING 60
SWIDTH 1142 0
DWIDTH 16 0
BBX 16 14 0 -3
BITMAP
0000
0000
0000
0010
0018
7ffc
0000
0000
0000
7ffc
3000
1000
0000
0000
ENDCHAR
STARTCHAR ch-61
ENCODING 61
SWIDTH 1142 0
DWIDTH 16 0
BBX 16 14 0 -3
BITMAP
0000
0000
0020
0820
0840
1ffc
2040
4080
2080
1ffc
0880
0900
0100
0000
ENDCHAR
STARTCHAR ch-62
ENCODING 62
SWIDTH 1142 0
DWIDTH 16 0
BBX 16 14 0 -3
BITMAP
0000
0000
0080
08a0
08a0
1ff0
2108
4104
2108
1ff0
0a20
0a20
0200
0000
ENDCHAR
STARTCHAR ch-63
ENCODING 63
SWIDTH 1142 0
DWIDTH 16 0
BBX 16 14 0 -3
BITMAP
0000
0000
0100
0120
0220
7ff0
0208
0404
0408
7ff0
0420
0820
0800
0000
ENDCHAR
STARTCHAR ch-64
ENCODING 64
SWIDTH 1142 0
DWIDTH 16 0
BBX 16 14 0 -3
BITMAP
0000
0000
0000
0800
0800
1ffc
2000
4000
2000
1ffc
0800
0800
0000
0000
ENDCHAR
STARTCHAR ch-65
ENCODING 65
SWIDTH 857 0
DWIDTH 12 0
BBX 12 14 0 -3
BITMAP
0000
0400
0a00
1100
71c0
1100
1100
1100
1100
1100
1100
1100
1100
1100
ENDCHAR
STARTCHAR ch-66
ENCODING 66
SWIDTH 1142 0
DWIDTH 16 0
BBX 16 14 0 -3
BITMAP
0000
0000
0000
0020
0020
7ff0
0008
0004
0008
7ff0
0020
0020
0000
0000
ENDCHAR
STARTCHAR ch-67
ENCODING 67
SWIDTH 1142 0
DWIDTH 16 0
BBX 16 14 0 -3
BITMAP
0000
1100
1100
1100
1100
1100
1100
1100
1100
1100
71c0
1100
0a00
0400
ENDCHAR
STARTCHAR ch-68
ENCODING 68
SWIDTH 1142 0
DWIDTH 16 0
BBX 16 14 0 -3
BITMAP
0000
0000
0000
0820
0820
1ff0
2008
4004
2008
1ff0
0820
0820
0000
0000
ENDCHAR
STARTCHAR ch-69
ENCODING 69
SWIDTH 857 0
DWIDTH 12 0
BBX 12 14 0 -3
BITMAP
0000
0400
0a00
1100
71c0
1100
1100
1100
1100
1100
71c0
1100
0a00
0400
ENDCHAR
STARTCHAR ch-70
ENCODING 70
SWIDTH 1142 0
DWIDTH 16 0
BBX 16 14 0 -3
BITMAP
0000
7f00
4400
4200
4100
6080
5040
4820
0410
0208
0104
0080
0040
0020
ENDCHAR
STARTCHAR ch-71
ENCODING 71
SWIDTH 1142 0
DWIDTH 16 0
BBX 16 14 0 -3
BITMAP
0000
01fc
0044
0084
0104
020c
0414
0824
1040
2080
4100
0200
0400
0800
ENDCHAR
STARTCHAR ch-72
ENCODING 72
SWIDTH 1142 0
DWIDTH 16 0
BBX 16 14 0 -3
BITMAP
0000
0800
0400
0200
4100
2080
1040
0824
0414
020c
0104
0084
0044
01fc
ENDCHAR
STARTCHAR ch-73
ENCODING 73
SWIDTH 1142 0
DWIDTH 16 0
BBX 16 14 0 -3
BITMAP
0000
0020
0040
0080
0104
0208
0410
4820
5040
6080
4100
4200
4400
7f00
ENDCHAR
STARTCHAR ch-74
ENCODING 74
SWIDTH 1142 0
DWIDTH 16 0
BBX 16 14 0 -3
BITMAP
0000
0000
0800
0800
1ffc
3000
2000
7ffc
2000
3000
1ffc
0800
0800
0000
ENDCHAR
STARTCHAR ch-75
ENCODING 75
SWIDTH 1142 0
DWIDTH 16 0
BBX 16 14 0 -3
BITMAP
0000
0000
0020
0020
7ff0
0018
0008
7ffc
0008
0018
7ff0
0020
0020
0000
ENDCHAR
STARTCHAR ch-76
ENCODING 76
SWIDTH 1142 0
DWIDTH 16 0
BBX 16 14 0 -3
BITMAP
0000
0000
0000
0000
0000
1000
2220
7d54
2088
1000
0000
0000
0000
0000
ENDCHAR
STARTCHAR ch-77
ENCODING 77
SWIDTH 1142 0
DWIDTH 16 0
BBX 16 14 0 -3
BITMAP
0000
0000
0000
0000
0000
0010
0888
557c
2208
0010
0000
0000
0000
0000
ENDCHAR
STARTCHAR ch-78
ENCODING 78
SWIDTH 571 0
DWIDTH 8 0
BBX 8 14 0 -3
BITMAP
0000
1000
3800
5400
1000
1000
7c00
1000
7c00
1000
1000
1000
1000
1000
ENDCHAR
STARTCHAR ch-79
ENCODING 79
SWIDTH 571 0
DWIDTH 8 0
BBX 8 14 0 -3
BITMAP
0000
1000
1000
1000
1000
1000
7c00
1000
7c00
1000
1000
5400
3800
1000
ENDCHAR
STARTCHAR ch-80
ENCODING 80
SWIDTH 1142 0
DWIDTH 16 0
BBX 16 14 0 -3
BITMAP
0000
0000
0000
0000
0000
1000
2000
6ccc
2000
1000
0000
0000
0000
0000
ENDCHAR
STARTCHAR ch-81
ENCODING 81
SWIDTH 1142 0
DWIDTH 16 0
BBX 16 14 0 -3
BITMAP
0000
1000
3800
4400
1000
1000
0000
0000
1000
1000
0000
0000
1000
1000
ENDCHAR
STARTCHAR ch-82
ENCODING 82
SWIDTH 1142 0
DWIDTH 16 0
BBX 16 14 0 -3
BITMAP
0000
0000
0000
0000
0000
0010
0008
666c
0008
0010
0000
0000
0000
0000
ENDCHAR
STARTCHAR ch-83
ENCODING 83
SWIDTH 1142 0
DWIDTH 16 0
BBX 16 14 0 -3
BITMAP
0000
0080
0080
0000
0000
0080
0080
0000
0000
0080
0080
0220
01c0
0080
ENDCHAR
STARTCHAR ch-84
ENCODING 84
SWIDTH 1142 0
DWIDTH 16 0
BBX 16 14 0 -3
BITMAP
0000
0000
0000
0000
0000
4800
5000
7ffc
5000
4800
0000
0000
0000
0000
ENDCHAR
STARTCHAR ch-85
ENCODING 85
SWIDTH 1142 0
DWIDTH 16 0
BBX 16 14 0 -3
BITMAP
0000
0000
0000
0000
0000
0024
0014
7ffc
0014
0024
0000
0000
0000
0000
ENDCHAR
STARTCHAR ch-86
ENCODING 86
SWIDTH 1142 0
DWIDTH 16 0
BBX 16 14 0 -3
BITMAP
0000
0000
0000
0400
0c00
17fc
2004
4004
2004
17fc
0c00
0400
0000
0000
ENDCHAR
STARTCHAR ch-87
ENCODING 87
SWIDTH 857 0
DWIDTH 12 0
BBX 12 14 0 -3
BITMAP
0000
0400
0a00
1100
2080
71c0
1100
1100
1100
1100
1100
1100
1100
1f00
ENDCHAR
STARTCHAR ch-88
ENCODING 88
SWIDTH 1142 0
DWIDTH 16 0
BBX 16 14 0 -3
BITMAP
0000
0000
0000
0040
0060
7fd0
4008
4004
4008
7fd0
0060
0040
0000
0000
ENDCHAR
STARTCHAR ch-89
ENCODING 89
SWIDTH 1142 0
DWIDTH 16 0
BBX 16 14 0 -3
BITMAP
0000
1f00
1100
1100
1100
1100
1100
1100
1100
71c0
2080
1100
0a00
0400
ENDCHAR
STARTCHAR ch-90
ENCODING 90
SWIDTH 1142 0
DWIDTH 16 0
BBX 16 14 0 -3
BITMAP
0000
0400
0a00
1100
2080
71c0
1100
1100
1100
1f00
0000
1f00
1100
1f00
ENDCHAR
ENDFONT
